<svg width="48" height="48" viewBox="0 0 48 48" fill="none" xmlns="http://www.w3.org/2000/svg">
<path d="M8.19423 14.9995C8.67523 14.9995 9.06516 14.6096 9.06516 14.1286C9.06516 13.6476 8.67523 13.2577 8.19423 13.2577C7.71322 13.2577 7.32329 13.6476 7.32329 14.1286C7.32329 14.6096 7.71322 14.9995 8.19423 14.9995Z" fill="#F3E536"/>
<path d="M21.0338 41.1309L23.1473 40.1822L24.2503 40.6289L24.8892 40.1822L27.5723 41.1309L25.8075 42.3342L22.5239 42.533L21.0338 41.1309Z" fill="#7EE6F0"/>
<path d="M14.512 24.6155C14.512 24.6155 12.0366 21.3534 10.3444 21.7397C8.65219 22.1259 6.3436 24.6155 6.3436 24.6155L6.885 20.4412C6.885 20.4412 9.71063 16.005 10.8225 15.9516C11.9344 15.8981 11.6091 17.2031 11.6091 17.2031C11.6091 17.2031 13.4784 20.3147 14.1403 20.4431C14.8022 20.5716 14.1403 21.5058 14.1403 21.5058C14.1403 21.5058 14.9902 23.0526 15.1425 22.8848C15.2948 22.717 14.512 24.6155 14.512 24.6155Z" fill="#DF80F5"/>
<path d="M33.6633 24.7744C33.6633 24.7744 36.1387 21.5124 37.8309 21.8986C39.5231 22.2849 41.8312 24.7744 41.8312 24.7744L41.2898 20.6025C41.2898 20.6025 38.4647 16.1663 37.3523 16.1128C36.24 16.0594 36.5648 17.3625 36.5648 17.3625C36.5648 17.3625 34.695 20.4736 34.0336 20.6025C33.3722 20.7314 34.0336 21.6652 34.0336 21.6652C34.0336 21.6652 33.1838 23.212 33.0314 23.0442C32.8791 22.8764 33.6633 24.7744 33.6633 24.7744Z" fill="#DF80F5"/>
<path d="M14.6878 20.2383C14.6334 20.0203 15.6202 14.6625 16.1578 14.5373C16.6955 14.4122 18.3037 14.0916 18.3037 14.0916L21.1078 16.9687L17.2172 19.9627L16.4353 21.1519L14.6878 20.2383Z" fill="#C664DC"/>
<path d="M27.0464 16.845L28.3247 15.1955L30.9314 14.0916L32.4487 15.4683L33.6366 20.2823L33.008 20.6803L31.7147 20.8866L29.8509 18.5981L27.0464 16.845Z" fill="#C664DC"/>
<path d="M8.61235 11.4427L10.3444 7.27734L12.5714 5.38031L15.4608 5.79281L18.5442 8.06063L19.1283 7.27734L21.1078 2.76375L21.9741 8.30813L23.551 9.76547H25.3556L25.882 8.26688L26.6494 4.23234L27.5138 2.76375L28.7372 7.52484L29.6208 7.97859L31.9908 6.32859L34.8821 5.38031L36.5316 6.03047L38.8631 8.92688L39.5424 12.4322L37.7278 10.4939L36.0778 10.3702L34.7583 11.2261L36.4491 14.0916L36.3253 17.2013L34.3139 20.4413H33.3853L33.015 16.4513L31.5417 14.5373L29.8097 14.288L27.6464 16.1086L26.6494 17.2013L23.8711 16.845L21.5611 17.2013L19.2933 14.6147L17.2158 13.9167L15.4608 15.113L14.6883 20.2383L13.3491 19.7438L11.3953 16.1086L12.1589 13.2206L13.4372 11.0302L12.4889 10.4114L10.4269 10.703L8.61235 11.4427Z" fill="#7EE6F0"/>
<path d="M21.1078 2.24578H27.0464L26.5875 5.66906L25.882 8.88562L24.5972 9.58687L22.6134 9.29671L21.4992 5.91656L21.1078 2.24578Z" fill="#F82C93"/>
<path d="M39.8798 14.9625C40.3609 14.9625 40.7508 14.5726 40.7508 14.0916C40.7508 13.6106 40.3609 13.2206 39.8798 13.2206C39.3988 13.2206 39.0089 13.6106 39.0089 14.0916C39.0089 14.5726 39.3988 14.9625 39.8798 14.9625Z" fill="#F3E536"/>
<path d="M24.0586 13.0786C24.8738 13.0786 25.5347 12.4177 25.5347 11.6025C25.5347 10.7873 24.8738 10.1264 24.0586 10.1264C23.2434 10.1264 22.5825 10.7873 22.5825 11.6025C22.5825 12.4177 23.2434 13.0786 24.0586 13.0786Z" fill="#63D2D7"/>
<path d="M41.8045 27.3141C42.2855 27.3141 42.6755 26.9241 42.6755 26.4431C42.6755 25.9621 42.2855 25.5722 41.8045 25.5722C41.3235 25.5722 40.9336 25.9621 40.9336 26.4431C40.9336 26.9241 41.3235 27.3141 41.8045 27.3141Z" fill="#B2DC34"/>
<path d="M21.5611 17.2013L23.8711 16.845L26.6494 17.2013L24.1055 20.7216L21.5611 17.2013Z" fill="#F3E536"/>
<path d="M14.7577 24.7744L18.0975 23.963L21.1078 25.0102L23.5509 29.588L24.1055 30.4542L25.5717 27.2086L27.6464 24.6155L29.9334 24.0253L33.4608 24.6155L32.6883 22.5909L31.3931 22.1114L31.7147 20.8866L29.6039 18.5981L27.0464 17.2012L24.7781 20.2383L23.7473 20.4412L21.5611 17.2012L19.087 17.917L16.3317 20.4412V21.7397L15.1406 22.883L14.7577 24.7744Z" fill="#9DDB49"/>
<path d="M15.8634 23.3606C16.6787 23.3606 17.3395 22.6998 17.3395 21.8845C17.3395 21.0693 16.6787 20.4084 15.8634 20.4084C15.0482 20.4084 14.3873 21.0693 14.3873 21.8845C14.3873 22.6998 15.0482 23.3606 15.8634 23.3606Z" fill="#85BA2D"/>
<path d="M32.2847 23.3606C33.0999 23.3606 33.7608 22.6998 33.7608 21.8845C33.7608 21.0693 33.0999 20.4084 32.2847 20.4084C31.4695 20.4084 30.8086 21.0693 30.8086 21.8845C30.8086 22.6998 31.4695 23.3606 32.2847 23.3606Z" fill="#85BA2D"/>
<path d="M15.4608 22.6106C15.9418 22.6106 16.3317 22.2207 16.3317 21.7397C16.3317 21.2587 15.9418 20.8688 15.4608 20.8688C14.9798 20.8688 14.5898 21.2587 14.5898 21.7397C14.5898 22.2207 14.9798 22.6106 15.4608 22.6106Z" fill="#F84E73"/>
<path d="M24.0928 12.097C24.5738 12.097 24.9638 11.7071 24.9638 11.2261C24.9638 10.7451 24.5738 10.3552 24.0928 10.3552C23.6118 10.3552 23.2219 10.7451 23.2219 11.2261C23.2219 11.7071 23.6118 12.097 24.0928 12.097Z" fill="#F8A142"/>
<path d="M32.8725 22.6106C33.3535 22.6106 33.7434 22.2207 33.7434 21.7397C33.7434 21.2587 33.3535 20.8688 32.8725 20.8688C32.3915 20.8688 32.0016 21.2587 32.0016 21.7397C32.0016 22.2207 32.3915 22.6106 32.8725 22.6106Z" fill="#F84E73"/>
<path d="M23.2219 35.8631L24.0736 36.5189L24.9638 35.8631L25.5347 32.1342L26.3039 27.9384L28.4897 25.245L30.9314 24.1927L28.8197 24.0253L26.5875 25.245L24.3281 29.9606L23.5509 28.8867L21.7266 25.245L18.8592 23.8275L14.7577 24.7744H17.8969L20.0939 25.5722L22.5769 29.588L23.2219 35.8631Z" fill="#F84E73"/>
<path d="M25.207 35.7614L25.5347 31.4025L27.0464 26.4431L30.3413 24.4467L33.3909 25.0102L34.3045 30.8662L33.015 36.2166L32.2852 37.6298L30.9314 36.1791L29.2889 36.2166L28.3659 37.1016L28.2422 38.6194L28.0547 39.585H27.0464L25.882 37.987L26.0569 36.8461L25.882 36.1791L25.207 35.7614Z" fill="#D47E0D"/>
<path d="M23.0752 35.7614L22.747 31.4025L21.2358 26.4431L17.9405 24.4467L14.8913 25.0102L13.9777 30.8662L15.2672 36.2166L15.997 37.6298L17.3508 36.1791L18.9928 36.2166L19.9158 37.1016L20.0395 38.6194L20.227 39.585H21.2358L22.4002 37.987L22.2253 36.8461L22.4002 36.1791L23.0752 35.7614Z" fill="#F39822"/>
<path d="M15.8639 38.1661L16.4339 36.2166L18.345 36.1791L19.9158 37.1016V39.585H21.2358L22.1264 38.363L22.6134 37.5061L23.8298 38.1661L24.5972 37.987L25.5717 37.5061L26.3039 39.0319L27.6464 39.585L28.2834 39.285L28.0547 37.1016L29.7558 36.1791L31.5005 36.5189L32.2852 38.4544L28.6777 44.182L24.9637 45.4655L20.5031 44.5992L18.5264 42.2977L15.8639 38.1661Z" fill="#DF80F5"/>
<path d="M24.0736 38.1089L22.3092 37.3941L22.4002 36.1791L22.8445 35.6916L24.0736 36.5189L25.207 35.7614L25.882 36.1791V37.1016L24.9638 37.8061L24.0736 38.1089Z" fill="#7EE6F0"/>
<path d="M27.0464 32.265L28.3247 30.2892L31.4592 30.1734L30.6342 31.65L28.5722 32.557L27.0464 32.265Z" fill="#D4C206"/>
<path d="M21.1078 32.265L19.912 30.1734L17.8969 29.8767L16.8192 30.1734L17.4787 32.0156L18.8592 32.265H20.6348H21.1078Z" fill="#F3E536"/>
<path d="M6.3436 24.6155C6.3436 24.6155 10.3444 17.7933 11.7464 18.2873C13.1484 18.7814 14.5898 20.8856 14.5898 20.8856L14.512 22.1433L15.1406 22.883L14.5898 24.3989L12.0764 21.9998L9.28547 22.1836L6.885 24.4467L6.3436 24.6155Z" fill="#C664DC"/>
<path d="M41.8214 24.6155C41.8214 24.6155 37.8211 17.7933 36.4186 18.2873C35.0161 18.7814 33.5752 20.8856 33.5752 20.8856L33.6534 22.1433L33.0248 22.882L33.5752 24.398L36.0891 21.9989L38.88 22.1826L41.28 24.4458L41.8214 24.6155Z" fill="#C664DC"/>
<path d="M9.03751 10.9927C9.03751 10.9927 14.2608 4.23 21.5625 12.0633L17.3564 9.76641L13.6449 11.227L11.7891 10.3561L9.28688 11.6034L9.03751 10.9927Z" fill="#63D2D7"/>
<path d="M38.9499 10.8933C38.9499 10.8933 33.7266 4.13062 26.4267 11.9639L30.6324 9.66704L34.3439 11.1277L36.1997 10.2567L38.7019 11.5041L38.9499 10.8933Z" fill="#63D2D7"/>
<path d="M33.3427 13.1995C32.7984 12.7029 32.1195 12.3784 31.3913 12.2667C30.663 12.155 29.918 12.2612 29.25 12.5719L24.2878 14.8814L18.8695 12.6534C18.2012 12.3421 17.4557 12.2356 16.727 12.3473C15.9983 12.459 15.3189 12.7839 14.7745 13.2811C14.3245 13.692 13.9819 14.2068 13.7765 14.7805C13.5711 15.3542 13.5091 15.9695 13.5961 16.5727L14.1319 20.2823L15.4608 15.113L16.8202 14.1872L19.0636 14.5373L21.1078 16.9688L24.2484 16.7639L27.0112 16.8872L29.0573 14.4558L31.3003 14.1061L32.6597 15.0314L33.9844 20.2031L34.5202 16.4934C34.6077 15.89 34.5461 15.2743 34.3409 14.7001C34.1356 14.1259 33.7929 13.6107 33.3427 13.1995Z" fill="#63D2D7"/>
<path d="M20.0939 5.75156L21.8916 9.09188L21.1078 2.76375L20.0939 5.75156Z" fill="#63D2D7"/>
<path d="M28.4128 5.33719L26.6147 8.67797L27.3984 2.34985L28.4128 5.33719Z" fill="#63D2D7"/>
<path d="M24.1092 29.1563L26.4267 25.5792L29.7548 23.9616C29.7548 23.9616 33.6127 25.05 33.3895 25.0088C33.1664 24.9675 33.0239 22.8816 33.0239 22.8816L32.0011 22.6092L31.5792 20.7202L29.2514 18.2231L26.2608 17.1516L24.3159 20.1342L24.1092 21.0103V29.1563Z" fill="#85BA2D"/>
<path d="M24.0586 16.7822L26.2608 17.1516L24.1055 20.1853L24.0586 16.7822Z" fill="#D4C206"/>
<path d="M24.0586 38.4131V40.4841L25.1123 40.0355L27.4078 41.2566L25.1123 42.6197H24.1092L24.0586 45.7542L27.5138 44.4342L30.3413 41.4445L32.2852 38.1089L31.2666 36.2166H29.4248L28.545 36.5189L28.1719 39.285L27.2527 39.7603L25.8614 38.1089L25.5717 37.5061L24.4327 37.987L24.0586 38.4131Z" fill="#C664DC"/>
<path d="M24.1092 36.2166V31.0706L24.8583 28.0017L26.5875 25.245L29.7558 23.963L30.3413 24.4467L30.0633 24.6155L27.0464 26.2064L25.3833 30.7153L25.1123 35.3067L24.727 36.082L24.1092 36.2166Z" fill="#DA3061"/>
<path opacity="0.43" d="M21.5625 2.86453L24.9375 3.4875C25.1068 3.51856 25.2595 3.60868 25.3685 3.74182C25.4775 3.87496 25.5358 4.04247 25.5328 4.21453C25.5145 5.27672 25.4199 7.42125 24.9652 8.28093C24.3474 9.44484 24.0938 9.58687 24.0938 9.58687L26.4277 8.67796L27.1519 2.24625H23.138L21.4973 2.44312C21.4973 2.44312 21.0689 2.51109 21.1059 2.55281C21.143 2.59453 21.5625 2.86453 21.5625 2.86453Z" fill="#F472B6"/>
<path d="M20.7891 41.22L22.9031 40.2717L24.0061 40.718L24.645 40.2717L27.3281 41.22L25.5633 42.4237L22.2797 42.622L20.7891 41.22Z" fill="#7EE6F0"/>
<path d="M24 10.74C24.1035 10.74 24.2046 10.7707 24.2907 10.8282C24.3767 10.8857 24.4438 10.9674 24.4834 11.063C24.5229 11.1587 24.5333 11.2639 24.513 11.3653C24.4928 11.4668 24.4429 11.56 24.3697 11.6332C24.2965 11.7063 24.2033 11.7561 24.1018 11.7762C24.0003 11.7964 23.8951 11.786 23.7995 11.7463C23.7039 11.7066 23.6222 11.6395 23.5648 11.5534C23.5074 11.4673 23.4768 11.3661 23.4769 11.2626C23.4771 11.124 23.5323 10.9912 23.6304 10.8932C23.7285 10.7952 23.8614 10.7401 24 10.74ZM24 9.8025C23.7111 9.8025 23.4287 9.88817 23.1885 10.0487C22.9483 10.2092 22.761 10.4374 22.6505 10.7043C22.54 10.9712 22.5111 11.2649 22.5675 11.5482C22.6239 11.8316 22.763 12.0918 22.9673 12.2961C23.1717 12.5003 23.432 12.6394 23.7153 12.6957C23.9987 12.752 24.2924 12.723 24.5593 12.6124C24.8262 12.5018 25.0543 12.3145 25.2147 12.0743C25.3751 11.834 25.4607 11.5516 25.4606 11.2626C25.4605 10.8753 25.3066 10.504 25.0327 10.2301C24.7587 9.95632 24.3873 9.8025 24 9.8025Z" fill="#71006B"/>
<path d="M31.6598 29.7895C31.5881 29.753 29.8912 28.9073 28.4723 29.5434C27.0534 30.1795 26.5505 32.0086 26.5312 32.0864C26.5034 32.1899 26.512 32.2998 26.5554 32.3979C26.5988 32.4959 26.6745 32.576 26.7698 32.625C26.8219 32.6512 27.7364 33.1073 28.778 33.1073C29.184 33.1133 29.5867 33.0334 29.9597 32.873C31.3805 32.2369 31.8816 30.4078 31.9008 30.33C31.9289 30.2259 31.9203 30.1154 31.8764 30.0169C31.8325 29.9185 31.756 29.8382 31.6598 29.7895ZM29.5781 32.0156C28.8952 32.3217 28.0523 32.1131 27.5742 31.9444C27.7683 31.4756 28.1766 30.7036 28.8548 30.4003C29.5331 30.097 30.3806 30.3028 30.8592 30.4716C30.6633 30.9408 30.2545 31.7114 29.5781 32.0156Z" fill="#71006B"/>
<path d="M18.0403 32.8706C18.4131 33.0313 18.8157 33.1111 19.2216 33.105C20.2636 33.105 21.1781 32.6489 21.2302 32.6227C21.3258 32.5741 21.402 32.4942 21.4458 32.3962C21.4897 32.2983 21.4986 32.1883 21.4711 32.0845C21.4505 32.0067 20.9508 30.1777 19.53 29.5416C18.1092 28.9055 16.4119 29.7516 16.3402 29.7877C16.244 29.8363 16.1675 29.9166 16.1236 30.0151C16.0797 30.1135 16.0711 30.2241 16.0992 30.3281C16.1198 30.4055 16.6195 32.2345 18.0403 32.8706ZM19.1466 30.3994C19.83 30.705 20.2364 31.4738 20.4286 31.943C19.9505 32.1117 19.1067 32.3208 18.4233 32.0147C17.7398 31.7086 17.3339 30.9408 17.1412 30.4711C17.6198 30.3023 18.4636 30.0938 19.1466 30.3994Z" fill="#71006B"/>
<path d="M27.3408 40.6561H27.338C27.0975 40.6561 26.13 40.268 25.0467 39.6787C24.975 39.6398 24.8943 39.6202 24.8126 39.622C24.731 39.6238 24.6512 39.6469 24.5813 39.6891L24 40.0383L23.4188 39.6891C23.3488 39.6469 23.269 39.6238 23.1874 39.622C23.1057 39.6202 23.025 39.6398 22.9533 39.6787C21.8653 40.2703 20.8959 40.6584 20.6592 40.6561C20.5624 40.6318 20.4606 40.6362 20.3662 40.6686C20.2718 40.701 20.1889 40.7602 20.1274 40.8388C20.066 40.9175 20.0287 41.0123 20.0201 41.1118C20.0115 41.2112 20.0319 41.311 20.0789 41.3991C20.3419 41.947 22.1414 43.2558 23.9958 43.2741H24.0042C25.8586 43.2577 27.6577 41.9489 27.9206 41.3991C27.9676 41.3111 27.988 41.2113 27.9794 41.1119C27.9708 41.0125 27.9336 40.9178 27.8722 40.8391C27.8108 40.7605 27.7279 40.7013 27.6336 40.6688C27.5393 40.6364 27.4376 40.6319 27.3408 40.6561ZM24 42.3342C22.9711 42.3239 21.9942 41.8238 21.4219 41.4216C21.6464 41.3419 21.9225 41.2289 22.2656 41.0709C22.6219 40.9064 22.9519 40.7391 23.1633 40.6289L23.7591 40.987C23.7708 40.9941 23.783 41.0002 23.7947 41.0063L23.8013 41.0095C23.8103 41.0138 23.8195 41.0175 23.8289 41.0208C23.8605 41.0335 23.8933 41.0426 23.9269 41.048H23.9311C23.9414 41.048 23.9522 41.048 23.9625 41.0508H23.977C23.9845 41.0508 23.992 41.0508 23.9995 41.0508C24.007 41.0508 24.015 41.0508 24.023 41.0508C24.0275 41.051 24.032 41.051 24.0366 41.0508L24.0689 41.048H24.0731C24.1073 41.0424 24.1408 41.0331 24.173 41.0203C24.1814 41.0166 24.1903 41.0138 24.1988 41.0095L24.2058 41.0058C24.2177 41.0002 24.2293 40.9939 24.2405 40.987L24.8363 40.6289C25.0481 40.7391 25.3781 40.9064 25.7344 41.0709C26.077 41.2289 26.3531 41.3419 26.5781 41.4216C26.0058 41.8238 25.0313 42.3239 24 42.3342Z" fill="#71006B"/>
<path d="M42.0792 25.0617C42.1059 24.847 42.2864 23.2013 41.7844 21.2409C41.1023 18.5784 39.4678 16.5759 37.05 15.4336C36.938 14.4422 36.5433 13.4236 35.8669 12.3867C35.6235 12.0109 35.3518 11.6542 35.0541 11.3198C35.5322 11.0128 36.0197 10.8942 36.5325 10.9603C37.8328 11.1272 38.9025 12.4317 39.1847 12.8058C38.8712 12.9535 38.6204 13.2078 38.4771 13.5233C38.3338 13.8388 38.3072 14.195 38.4023 14.5282C38.4973 14.8615 38.7077 15.1501 38.9959 15.3426C39.284 15.535 39.6312 15.6188 39.9755 15.5789C40.3197 15.5391 40.6386 15.3781 40.8751 15.1249C41.1117 14.8716 41.2505 14.5426 41.2668 14.1964C41.2832 13.8503 41.1759 13.5096 40.9643 13.2352C40.7526 12.9608 40.4504 12.7705 40.1114 12.6984C40.1174 12.6496 40.1157 12.6001 40.1062 12.5517C39.2648 8.30813 37.7841 5.82141 35.7047 5.16094C33.2962 4.39594 30.8259 6.28594 29.5673 7.48313C29.5509 7.4995 29.5304 7.51128 29.5079 7.51728C29.4855 7.52328 29.4618 7.52331 29.4394 7.51734C29.4169 7.51247 29.3961 7.50169 29.3791 7.48612C29.3621 7.47055 29.3496 7.45075 29.3428 7.42875L27.5728 2.20312L27.5686 2.19281C27.5686 2.18578 27.5634 2.17875 27.5606 2.17172C27.5578 2.16469 27.5531 2.15484 27.5489 2.1464C27.5447 2.13797 27.5428 2.13469 27.5395 2.12859C27.5362 2.1225 27.5292 2.11078 27.5241 2.10187L27.5147 2.08781C27.5081 2.07844 27.5011 2.06906 27.4941 2.06015C27.487 2.05125 27.4903 2.055 27.488 2.05219L27.4847 2.0489C27.4767 2.03953 27.4678 2.03015 27.4594 2.02172L27.4509 2.01328C27.4402 2.00297 27.4284 1.99312 27.4167 1.98375C27.4038 1.97379 27.3903 1.96456 27.3764 1.95609L27.3666 1.95047C27.3558 1.94437 27.345 1.93828 27.3342 1.93312L27.3192 1.92656L27.2897 1.91437L27.2737 1.90922L27.2428 1.90031L27.2269 1.89703C27.2161 1.89703 27.2048 1.89281 27.1941 1.8914H27.1791C27.1673 1.8914 27.1552 1.8914 27.1434 1.88906H27.1345L24.0056 1.86562H23.9986L20.8697 1.88906H20.8594C20.8472 1.88906 20.8355 1.88906 20.8233 1.8914H20.8087C20.7975 1.8914 20.7867 1.89469 20.7755 1.89703L20.76 1.90031L20.7291 1.90922L20.7131 1.91437C20.7028 1.91812 20.693 1.92234 20.6831 1.92703L20.6686 1.93312L20.6353 1.95094L20.6264 1.95609C20.6125 1.96461 20.599 1.97384 20.5861 1.98375C20.5734 1.99359 20.5617 2.0039 20.55 2.01469L20.5425 2.02219C20.5336 2.03156 20.5247 2.04094 20.5162 2.05078L20.5134 2.05359C20.5114 2.05598 20.5095 2.05848 20.5078 2.06109C20.5003 2.07047 20.4933 2.07984 20.4867 2.08922L20.4773 2.10328C20.4717 2.11219 20.4666 2.12109 20.4614 2.13047C20.4562 2.13984 20.4553 2.14172 20.4525 2.14781C20.4497 2.1539 20.4445 2.16469 20.4408 2.17312C20.437 2.18156 20.4352 2.18719 20.4328 2.19422C20.4312 2.19757 20.4298 2.20101 20.4286 2.20453L18.6591 7.43016C18.6522 7.45214 18.6397 7.47191 18.6227 7.48747C18.6058 7.50304 18.585 7.51383 18.5625 7.51875C18.54 7.52466 18.5163 7.52461 18.4938 7.51861C18.4712 7.51261 18.4507 7.50087 18.4341 7.48453C17.1759 6.28922 14.7056 4.39734 12.2972 5.16234C10.2178 5.82281 8.73703 8.30953 7.89562 12.5531C7.88598 12.6014 7.88424 12.651 7.89047 12.6998C7.55161 12.7719 7.24939 12.962 7.03778 13.2363C6.82617 13.5106 6.71893 13.8512 6.73523 14.1973C6.75153 14.5433 6.8903 14.8723 7.12675 15.1255C7.36321 15.3787 7.68196 15.5396 8.02609 15.5794C8.37022 15.6193 8.71732 15.5356 9.00542 15.3432C9.29352 15.1508 9.50385 14.8623 9.59886 14.5291C9.69387 14.196 9.66738 13.8399 9.5241 13.5245C9.38083 13.2091 9.13011 12.9548 8.81672 12.8072C9.09797 12.4322 10.1695 11.1286 11.4689 10.9617C11.9845 10.8956 12.4692 11.0142 12.9478 11.3213C12.6501 11.6556 12.3783 12.0123 12.135 12.3881C11.4586 13.4236 11.0634 14.4422 10.9519 15.435C8.53312 16.5769 6.89812 18.5798 6.2175 21.2423C5.71547 23.2027 5.89594 24.8484 5.92265 25.0631C5.58724 25.1455 5.29183 25.3439 5.08884 25.6234C4.88584 25.9028 4.7884 26.2451 4.81378 26.5895C4.83917 26.9339 4.98575 27.2583 5.22751 27.5049C5.46928 27.7515 5.7906 27.9046 6.13446 27.9368C6.47832 27.9691 6.82249 27.8785 7.10591 27.6811C7.38933 27.4837 7.59366 27.1924 7.68267 26.8586C7.77167 26.5249 7.73959 26.1705 7.59211 25.8582C7.44462 25.5459 7.19128 25.2959 6.87703 25.1527C8.37937 23.1614 9.78 22.2408 11.0414 22.4147C12.7673 22.6509 13.8473 24.8906 14.1094 25.5C14.0735 25.6176 14.0476 25.738 14.032 25.86C13.7569 28.0631 13.3289 31.9617 13.5666 33.3464C13.7128 34.2009 14.3766 36.3614 15.4416 38.5997C15.451 38.6243 15.4623 38.6481 15.4753 38.6709C15.7495 39.2414 16.05 39.8166 16.3744 40.3753C17.3484 42.053 18.4134 43.3885 19.5389 44.3452C20.9372 45.533 22.4292 46.1349 23.9747 46.1349H24.0159C25.5628 46.1349 27.0534 45.5325 28.4512 44.3452C29.5762 43.3885 30.6422 42.053 31.6162 40.3753C31.9406 39.8166 32.2406 39.2424 32.5144 38.6719C32.527 38.6503 32.5378 38.6278 32.5467 38.6044C33.6155 36.3642 34.2811 34.2019 34.4259 33.3464C34.6627 31.9617 34.2384 28.0617 33.9609 25.86C33.9453 25.7382 33.9195 25.6179 33.8836 25.5005C34.148 24.8911 35.228 22.6505 36.9553 22.4123C38.2167 22.238 39.6173 23.1591 41.1197 25.1503C40.8055 25.2934 40.5521 25.5432 40.4046 25.8553C40.257 26.1674 40.2248 26.5217 40.3136 26.8554C40.4024 27.189 40.6066 27.4804 40.8898 27.6778C41.173 27.8752 41.517 27.966 41.8608 27.9339C42.2045 27.9018 42.5258 27.749 42.7676 27.5026C43.0094 27.2561 43.1561 26.932 43.1817 26.5877C43.2072 26.2434 43.11 25.9012 42.9073 25.6218C42.7045 25.3423 42.4093 25.1437 42.0741 25.0613L42.0792 25.0617ZM39.8058 13.6055C39.9092 13.6057 40.0102 13.6367 40.096 13.6943C40.1819 13.752 40.2487 13.8338 40.2881 13.9294C40.3275 14.025 40.3376 14.1301 40.3173 14.2315C40.2969 14.3329 40.247 14.426 40.1738 14.499C40.1006 14.572 40.0073 14.6217 39.9059 14.6418C39.8045 14.6618 39.6994 14.6514 39.6039 14.6118C39.5083 14.5721 39.4267 14.5051 39.3693 14.4191C39.3119 14.3331 39.2812 14.232 39.2812 14.1286C39.2815 13.9897 39.3369 13.8566 39.4352 13.7585C39.5336 13.6604 39.6669 13.6053 39.8058 13.6055ZM8.19422 14.6517C8.09081 14.6514 7.98981 14.6205 7.90397 14.5629C7.81813 14.5052 7.75129 14.4234 7.71192 14.3278C7.67254 14.2322 7.66238 14.1271 7.68272 14.0257C7.70307 13.9243 7.753 13.8312 7.82621 13.7582C7.89943 13.6852 7.99264 13.6355 8.09408 13.6154C8.19552 13.5954 8.30063 13.6058 8.39614 13.6454C8.49164 13.6851 8.57326 13.7521 8.63068 13.8381C8.6881 13.9241 8.71875 14.0252 8.71875 14.1286C8.7185 14.2675 8.66311 14.4006 8.56476 14.4987C8.4664 14.5968 8.33313 14.6518 8.19422 14.6517ZM24 2.80078L26.5753 2.82L25.6875 8.08031C25.6587 8.25098 25.5855 8.41104 25.4752 8.54438L25.3462 8.7C25.1821 8.89816 24.9763 9.05767 24.7434 9.16715C24.5105 9.27664 24.2564 9.3334 23.9991 9.3334C23.7417 9.3334 23.4876 9.27664 23.2547 9.16715C23.0219 9.05767 22.816 8.89816 22.6519 8.7L22.523 8.54438C22.4126 8.41104 22.3394 8.25098 22.3106 8.08031L21.4247 2.82L24 2.80078ZM24.5231 11.2627C24.5232 11.3661 24.4926 11.4673 24.4352 11.5534C24.3778 11.6395 24.2961 11.7066 24.2005 11.7463C24.1049 11.786 23.9997 11.7964 23.8982 11.7763C23.7967 11.7561 23.7035 11.7063 23.6303 11.6332C23.5571 11.5601 23.5072 11.4668 23.487 11.3654C23.4667 11.2639 23.4771 11.1587 23.5166 11.063C23.5562 10.9674 23.6233 10.8857 23.7093 10.8282C23.7954 10.7707 23.8965 10.74 24 10.74C24.1386 10.7401 24.2715 10.7952 24.3696 10.8932C24.4677 10.9912 24.5229 11.124 24.5231 11.2627ZM12.9197 12.9033C13.9102 11.3873 15.067 10.5722 16.3584 10.4808C17.6677 10.387 18.9202 11.0522 19.7405 11.6259C20.2951 12.0137 20.8067 12.4595 21.2667 12.9558C21.3073 13.0021 21.3566 13.04 21.4118 13.0673C21.467 13.0945 21.527 13.1107 21.5885 13.1147C21.6499 13.1188 21.7115 13.1107 21.7699 13.091C21.8282 13.0712 21.882 13.0402 21.9284 12.9996C21.9747 12.959 22.0126 12.9098 22.0398 12.8545C22.0671 12.7993 22.0832 12.7393 22.0873 12.6779C22.0914 12.6164 22.0833 12.5548 22.0635 12.4965C22.0438 12.4382 22.0128 12.3843 21.9722 12.338C21.8648 12.2156 19.3064 9.33422 16.2961 9.54516C15.3337 9.61266 14.4441 9.98578 13.6355 10.658C12.9169 10.1423 12.1481 9.93047 11.3452 10.0345C10.5112 10.1433 9.77906 10.5792 9.21094 11.0475C9.57375 9.73078 10.0148 8.65688 10.5286 7.84031C11.1187 6.90281 11.8092 6.30328 12.5808 6.05906C13.4245 5.79141 14.3944 5.93156 15.4683 6.47531C16.4245 6.96 17.258 7.66266 17.7886 8.16703C17.9195 8.29139 18.0796 8.38075 18.2542 8.42686C18.4288 8.47296 18.6121 8.47433 18.7874 8.43084C18.9626 8.38735 19.1241 8.30039 19.2568 8.17801C19.3895 8.05562 19.4893 7.90176 19.5469 7.73063L20.7187 4.26937L21.3872 8.23594C21.4438 8.56865 21.5868 8.88064 21.802 9.14063L21.9305 9.29625C22.2387 9.66865 22.6418 9.95092 23.0972 10.1133C22.8582 10.301 22.6837 10.5585 22.598 10.8501C22.5123 11.1416 22.5196 11.4526 22.6189 11.7398C22.7182 12.027 22.9046 12.276 23.1521 12.4523C23.3996 12.6286 23.6959 12.7234 23.9998 12.7234C24.3036 12.7234 24.5999 12.6286 24.8474 12.4523C25.0949 12.276 25.2813 12.027 25.3806 11.7398C25.4799 11.4526 25.4872 11.1416 25.4015 10.8501C25.3158 10.5585 25.1413 10.301 24.9023 10.1133C25.3578 9.95104 25.7609 9.66875 26.0691 9.29625L26.198 9.14063C26.4135 8.88013 26.5566 8.56745 26.6128 8.23406L27.2812 4.26937L28.4531 7.73063C28.511 7.90154 28.611 8.05511 28.7439 8.17719C28.8768 8.29926 29.0383 8.3859 29.2135 8.4291C29.3887 8.4723 29.5719 8.47069 29.7463 8.42439C29.9208 8.3781 30.0807 8.28862 30.2114 8.16422C30.742 7.65984 31.5755 6.95719 32.5317 6.4725C33.6056 5.92875 34.5769 5.78859 35.4187 6.05625C36.1908 6.30094 36.8812 6.9 37.4714 7.8375C37.987 8.65313 38.4262 9.72797 38.7886 11.0447C38.2209 10.5759 37.4883 10.1405 36.6548 10.0317C35.8519 9.92766 35.0831 10.1377 34.3641 10.6552C33.5555 9.98438 32.6662 9.60938 31.7039 9.54281C28.6936 9.33141 26.1352 12.2147 26.0278 12.3356C25.954 12.4299 25.9191 12.5488 25.9302 12.668C25.9413 12.7872 25.9976 12.8977 26.0875 12.9767C26.1775 13.0557 26.2942 13.0973 26.4139 13.093C26.5335 13.0887 26.6469 13.0387 26.7309 12.9534C27.1917 12.4575 27.7042 12.0121 28.2595 11.625C29.7455 10.5853 30.9187 10.4283 31.6416 10.4798C32.933 10.5736 34.0898 11.3864 35.0803 12.9023C36.0314 14.3583 36.3459 15.7481 36.0178 17.0339C35.6527 18.4566 34.5703 19.4667 33.8592 19.9988C33.8146 19.2165 33.722 18.4377 33.5822 17.6667C33.1533 15.3698 32.348 14.0386 31.1887 13.7123C30.2686 13.4536 29.1984 13.8595 28.0073 14.9189C27.5202 15.352 27.0033 15.9019 26.4567 16.5684C24.8396 16.2134 23.1646 16.2134 21.5475 16.5684C21.0019 15.9031 20.4852 15.3533 19.9973 14.9189C18.8062 13.8595 17.7361 13.4536 16.8159 13.7123C15.6567 14.0405 14.8514 15.3689 14.4225 17.6667C14.2824 18.4384 14.1899 19.218 14.1455 20.0011C13.4358 19.4719 12.3572 18.4664 11.9892 17.0405C11.6527 15.75 11.9672 14.3592 12.9197 12.9009V12.9033ZM24.5625 35.7099C24.326 35.8146 24.129 35.9919 24 36.2161C23.8707 35.9921 23.6738 35.8149 23.4375 35.7099C23.4741 34.0139 23.3958 27.4359 20.0855 25.1358C19.5943 24.7928 19.0377 24.5545 18.4505 24.4359C18.9401 24.4799 19.416 24.6212 19.8502 24.8517C22.6931 26.3564 23.528 31.2567 23.5359 31.3059C23.5359 31.3097 23.5359 31.3134 23.5383 31.3172C23.5406 31.3209 23.5425 31.3383 23.5448 31.3481L23.5505 31.3659C23.5528 31.3744 23.5556 31.3828 23.5584 31.3913C23.5612 31.3997 23.5641 31.4058 23.5673 31.4128C23.5706 31.4199 23.5725 31.4259 23.5758 31.4325C23.5791 31.4391 23.5837 31.448 23.588 31.4559C23.5922 31.4639 23.5936 31.4667 23.5969 31.4719L23.6119 31.4944C23.615 31.4996 23.6185 31.5046 23.6222 31.5094C23.6273 31.5164 23.6325 31.523 23.6381 31.5295L23.6517 31.545C23.6564 31.5506 23.662 31.5563 23.6672 31.5614L23.6841 31.5778L23.6991 31.5905L23.7197 31.6069C23.7244 31.6106 23.7291 31.6134 23.7337 31.6167L23.7577 31.6322L23.7722 31.6406L23.7975 31.6538L23.8148 31.6613C23.8223 31.6645 23.8303 31.6678 23.8387 31.6706L23.8608 31.6781L23.8814 31.6842L23.9095 31.6903L23.9231 31.6931H23.9269L23.9555 31.6964H23.9747H24.0216H24.0384L24.0689 31.6931H24.0727L24.0853 31.6903L24.1144 31.6842L24.1345 31.6781L24.157 31.6706C24.1655 31.6678 24.173 31.6645 24.1809 31.6613L24.1983 31.6538L24.2236 31.6402L24.2377 31.6327L24.2625 31.6163L24.2752 31.6074C24.2831 31.6017 24.2902 31.5956 24.2972 31.59L24.3108 31.5783C24.3172 31.5727 24.3233 31.5668 24.3291 31.5605C24.3342 31.5558 24.3389 31.5506 24.3436 31.5455L24.3581 31.5286C24.3633 31.5225 24.3684 31.5164 24.3731 31.5099L24.3844 31.4934C24.3895 31.4865 24.3942 31.4793 24.3984 31.4719L24.4083 31.455L24.42 31.4325C24.4228 31.4259 24.4256 31.4189 24.4289 31.4124L24.4373 31.3913C24.4402 31.3828 24.443 31.3744 24.4453 31.3659C24.4477 31.3575 24.4491 31.3542 24.4505 31.3481C24.4519 31.342 24.4556 31.3275 24.4575 31.3167C24.4575 31.3134 24.4575 31.3097 24.4575 31.3059C24.6296 30.388 24.8905 29.4889 25.2366 28.6214C25.7522 27.3314 26.6728 25.6308 28.1428 24.8527C28.5773 24.622 29.0535 24.4803 29.5434 24.4359C28.9567 24.5548 28.4006 24.793 27.9098 25.1358C24.6028 27.4359 24.5245 34.0139 24.5625 35.7099ZM25.448 36.375C25.6406 36.6178 25.388 37.1391 24.8855 37.5389C24.7406 37.655 24.5817 37.7524 24.4125 37.8286C24.3603 37.8911 24.2946 37.9408 24.2203 37.9741C24.146 38.0074 24.0651 38.0232 23.9838 38.0205C23.9024 38.0178 23.8227 37.9966 23.7508 37.9585C23.6789 37.9203 23.6166 37.8663 23.5687 37.8005C23.4219 37.7285 23.2833 37.6408 23.1553 37.5389C22.6514 37.1391 22.3987 36.6178 22.5928 36.375C22.7869 36.1322 23.3508 36.2592 23.8547 36.6591C23.9142 36.7059 23.9705 36.7556 24.0225 36.8058C24.075 36.7556 24.1308 36.7064 24.1903 36.6591C24.6905 36.2611 25.2553 36.1341 25.448 36.375ZM27.7073 24.0225C25.6552 25.11 24.5475 27.5738 24 29.3011C23.4525 27.5738 22.3448 25.11 20.2927 24.0225C18.8616 23.2641 17.2116 23.2955 15.3867 24.1163C15.4636 23.8448 15.5583 23.5453 15.6741 23.2256C15.9799 23.1256 16.2464 22.9315 16.4355 22.6711C16.6245 22.4106 16.7265 22.0971 16.7269 21.7753C16.7271 21.5914 16.6938 21.4091 16.6284 21.2372C17.3316 20.0902 18.2137 19.1747 19.2478 18.5152C19.8527 18.1308 20.508 17.8322 21.195 17.6278C21.8981 18.5306 22.695 19.6866 23.6006 21.1617L23.6048 21.1683C23.6133 21.1809 23.6222 21.1936 23.6316 21.2058L23.6405 21.217C23.6512 21.2297 23.6625 21.2423 23.6747 21.2541L23.6789 21.2583C23.6919 21.2703 23.7055 21.2815 23.7197 21.292L23.737 21.3042L23.7548 21.3159C23.7574 21.3175 23.7601 21.3189 23.7628 21.3202C23.7743 21.3271 23.7862 21.3333 23.7984 21.3389L23.8205 21.3492C23.8317 21.3539 23.843 21.3572 23.8542 21.3609C23.8655 21.3647 23.8711 21.367 23.88 21.3694C23.8889 21.3717 23.9016 21.3741 23.9123 21.3759C23.9231 21.3778 23.9306 21.3802 23.94 21.3816C23.9494 21.383 23.9714 21.3839 23.9869 21.3844H23.9991H24.0112C24.0272 21.3844 24.0427 21.3844 24.0581 21.3816C24.0736 21.3788 24.0764 21.3778 24.0858 21.3759C24.0952 21.3741 24.1073 21.3722 24.1181 21.3694C24.1289 21.3666 24.1355 21.3638 24.1444 21.3609C24.1533 21.3581 24.1664 21.3539 24.1772 21.3492L24.1997 21.3389C24.2119 21.3333 24.2236 21.3272 24.2348 21.3206L24.2433 21.3159L24.2611 21.3038L24.2784 21.292C24.2925 21.2813 24.3066 21.27 24.3192 21.2583L24.323 21.2541C24.3352 21.2423 24.3469 21.2297 24.3577 21.217L24.3661 21.2058C24.3759 21.1936 24.3848 21.1809 24.3933 21.1683L24.3975 21.1617C25.3031 19.6866 26.1014 18.5306 26.8031 17.6278C27.4907 17.8322 28.1467 18.131 28.7522 18.5156C29.7862 19.1747 30.6666 20.0906 31.3716 21.2377C31.3062 21.4095 31.2729 21.5919 31.2731 21.7758C31.2735 22.0976 31.3755 22.4111 31.5645 22.6715C31.7536 22.932 32.02 23.1261 32.3259 23.2261C32.4417 23.5434 32.5364 23.843 32.6137 24.1167C30.7889 23.2969 29.1384 23.2655 27.7073 24.0244V24.0225ZM15.2016 21.1875C15.3573 21.1879 15.5066 21.2499 15.6168 21.3601C15.727 21.4702 15.789 21.6195 15.7894 21.7753C15.7891 21.9311 15.7271 22.0805 15.6169 22.1907C15.5068 22.3009 15.3574 22.3629 15.2016 22.3631C15.1389 22.3633 15.0767 22.3531 15.0173 22.3331C14.8849 22.2891 14.7725 22.1995 14.7001 22.0802C14.6278 21.9609 14.6002 21.8197 14.6224 21.682C14.6445 21.5442 14.7149 21.4189 14.8211 21.3283C14.9272 21.2377 15.062 21.1878 15.2016 21.1875ZM15.0661 20.2561C15.1537 18.4617 15.615 15.0202 17.0677 14.6119C17.6184 14.4572 18.6961 14.6709 20.5603 16.8483C19.916 17.0706 19.3003 17.3684 18.7261 17.7356C17.662 18.4181 16.747 19.3392 16.0012 20.4769C15.7611 20.3282 15.4841 20.2496 15.2016 20.25C15.1561 20.25 15.1106 20.2533 15.0661 20.2575V20.2561ZM22.1911 17.3902C23.3871 17.1858 24.6091 17.1858 25.8052 17.3902C25.2302 18.1548 24.6277 19.035 23.9977 20.0306C23.3702 19.0369 22.7684 18.1569 22.1925 17.3906L22.1911 17.3902ZM27.4378 16.8483C29.3025 14.6709 30.3802 14.4577 30.9309 14.6119C32.3841 15.0202 32.8448 18.4617 32.932 20.2561C32.8852 20.2519 32.8425 20.25 32.797 20.25C32.5145 20.2496 32.2375 20.3282 31.9973 20.4769C31.253 19.3406 30.338 18.4219 29.2734 17.737C28.6995 17.3697 28.0839 17.0719 27.4397 16.8497L27.4378 16.8483ZM32.2106 21.7767C32.2105 21.6684 32.2404 21.5622 32.2969 21.4698C32.3534 21.3774 32.4343 21.3024 32.5307 21.253C32.6271 21.2037 32.7353 21.182 32.8433 21.1902C32.9513 21.1985 33.0549 21.2364 33.1427 21.2999C33.2305 21.3633 33.299 21.4498 33.3408 21.5497C33.3826 21.6496 33.3959 21.7592 33.3793 21.8662C33.3628 21.9732 33.317 22.0736 33.247 22.1562C33.177 22.2389 33.0855 22.3006 32.9827 22.3345C32.9233 22.3545 32.8611 22.3647 32.7984 22.3645C32.6426 22.3644 32.4931 22.3024 32.3829 22.1922C32.2727 22.082 32.2107 21.9326 32.2106 21.7767ZM6.26953 27.0033C6.16607 27.0033 6.06492 26.9726 5.9789 26.9151C5.89287 26.8576 5.82582 26.7759 5.78623 26.6804C5.74663 26.5848 5.73627 26.4796 5.75646 26.3781C5.77664 26.2766 5.82646 26.1834 5.89962 26.1103C5.97278 26.0371 6.066 25.9873 6.16747 25.9671C6.26895 25.9469 6.37413 25.9573 6.46972 25.9969C6.56531 26.0365 6.64701 26.1035 6.70449 26.1895C6.76197 26.2756 6.79265 26.3767 6.79265 26.4802C6.79241 26.6188 6.73721 26.7517 6.63916 26.8498C6.54111 26.9478 6.40819 27.003 6.26953 27.0033ZM11.1708 21.4842C9.76453 21.2888 8.29969 22.0467 6.8114 23.7431C6.83235 22.9667 6.94005 22.195 7.1325 21.4425C7.71562 19.1967 8.99531 17.5331 10.9406 16.4883C10.9654 16.7536 11.0114 17.0165 11.0784 17.2744C11.5795 19.2117 13.1212 20.4563 13.9022 20.9775C13.7835 21.1705 13.7093 21.3875 13.685 21.6128C13.6607 21.838 13.687 22.0659 13.7618 22.2797C13.8367 22.4936 13.9582 22.688 14.1177 22.849C14.2771 23.0099 14.4705 23.1333 14.6836 23.2102C14.5795 23.5158 14.4961 23.8022 14.4258 24.0609C13.8047 23.0273 12.7223 21.6998 11.1708 21.4842ZM15.72 36.9244C14.9859 35.1675 14.58 33.7003 14.4933 33.1908C14.3377 32.2795 14.5139 29.5814 14.9648 25.9781C14.9707 25.9308 14.9794 25.8838 14.9911 25.8375C16.8534 25.0739 18.3872 25.0969 19.5511 25.9045C22.4498 27.9174 22.5272 34.1438 22.4991 35.6981C22.2791 35.7889 22.091 35.943 21.9585 36.1407C21.8261 36.3385 21.7553 36.5711 21.7552 36.8091C21.7548 36.9962 21.7987 37.1807 21.8831 37.3477C21.7734 37.8633 21.3637 39.4383 20.4942 39.3164C20.3316 39.293 20.2777 39.2559 20.2683 39.2484C20.2336 39.1674 20.2983 38.8622 20.3367 38.6789C20.4666 38.0695 20.6625 37.1438 19.8075 36.4477C19.3882 36.1045 18.9012 35.8539 18.3783 35.7122C17.7961 35.5613 17.243 35.5922 16.7798 35.8017C16.4128 35.9663 15.9961 36.2911 15.72 36.9244ZM30.81 39.9066C29.8898 41.4919 28.8933 42.7453 27.8494 43.6327C26.625 44.6719 25.3373 45.1992 24.0202 45.1992H23.9798C22.6627 45.1992 21.3745 44.6724 20.1506 43.6327C19.1062 42.7453 18.1102 41.4919 17.1895 39.9066C16.8872 39.3858 16.6106 38.8594 16.3594 38.3438C16.3987 37.6978 16.5759 36.923 17.1661 36.6563C17.7009 36.4149 18.5437 36.6281 19.2155 37.1752C19.6069 37.4939 19.5478 37.8806 19.4198 38.4877C19.3261 38.9353 19.2267 39.3984 19.4995 39.7889C19.6748 40.0397 19.9566 40.1892 20.3616 40.2474C20.4423 40.2591 20.5237 40.2651 20.6053 40.2652C21.5939 40.2652 22.1522 39.3638 22.4077 38.7975C22.5237 38.5349 22.6199 38.264 22.6955 37.987C22.7813 38.0065 22.869 38.0163 22.957 38.0161C22.9833 38.0161 23.0091 38.0161 23.0348 38.0161C23.0508 38.0409 23.0677 38.063 23.0855 38.0888C23.0944 38.1009 23.1037 38.1122 23.1127 38.1239C23.1314 38.1464 23.1511 38.1708 23.1712 38.19C23.2321 38.2542 23.3004 38.3111 23.3747 38.3592C23.4366 38.4003 23.5026 38.4349 23.5716 38.4624C23.5936 38.4713 23.6161 38.4792 23.6391 38.4872L23.6733 38.498L23.708 38.5078L23.7305 38.5134C23.7412 38.5163 23.752 38.5191 23.7633 38.521L23.8172 38.5313L23.8425 38.5345L23.8894 38.5402C23.9058 38.5402 23.9222 38.543 23.9391 38.5439H23.9475C23.9653 38.5439 23.9831 38.5439 24.0014 38.5439C24.0197 38.5439 24.0375 38.5439 24.0553 38.5439H24.0637C24.0806 38.5439 24.097 38.5439 24.1134 38.5402C24.1298 38.5364 24.1439 38.5369 24.1603 38.5345L24.1856 38.5313C24.2039 38.5285 24.2222 38.5252 24.2395 38.521C24.2569 38.5167 24.2616 38.5163 24.2723 38.5134L24.2948 38.5078C24.3066 38.505 24.3183 38.5017 24.3295 38.498L24.3637 38.4872C24.3867 38.4792 24.4106 38.4713 24.4312 38.4624C24.5002 38.4349 24.5662 38.4003 24.6281 38.3592C24.7024 38.3111 24.7707 38.2542 24.8316 38.19C24.8517 38.1684 24.8714 38.1464 24.8902 38.1239C24.8995 38.1122 24.9089 38.1005 24.9173 38.0888C24.9352 38.0653 24.952 38.0419 24.968 38.0161C24.9937 38.0161 25.0195 38.0161 25.0458 38.0161C25.1338 38.0163 25.2215 38.0065 25.3073 37.987C25.3827 38.2625 25.4784 38.532 25.5937 38.7933C26.1422 40.0163 26.8959 40.2595 27.4083 40.2595C27.4858 40.2595 27.5631 40.254 27.6398 40.2431C28.0444 40.185 28.3266 40.0355 28.5019 39.7847C28.7747 39.3942 28.6762 38.9311 28.5816 38.4834C28.4531 37.8788 28.3941 37.492 28.7859 37.1709C29.4577 36.6239 30.3005 36.4106 30.8353 36.652C31.4255 36.9188 31.6027 37.6941 31.642 38.3395C31.3894 38.8594 31.1128 39.3853 30.81 39.9066ZM33.5067 33.1908C33.4195 33.7003 33.0136 35.1675 32.28 36.9244C32.0039 36.2911 31.5872 35.9663 31.2197 35.7994C30.7566 35.5899 30.2039 35.5589 29.6212 35.7099C29.0985 35.8517 28.6117 36.1023 28.1925 36.4453C27.3375 37.1414 27.5334 38.0653 27.6628 38.6766C27.7017 38.8599 27.7664 39.165 27.7317 39.2461C27.7223 39.2536 27.6684 39.293 27.5058 39.3141C27.1017 39.3717 26.7483 39.0717 26.4539 38.4235C26.3346 38.1537 26.2395 37.8738 26.1698 37.5872C26.1469 37.4934 26.1291 37.4142 26.1159 37.35C26.2009 37.1825 26.2451 36.9973 26.2448 36.8095C26.2446 36.5714 26.1737 36.3388 26.0411 36.141C25.9085 35.9432 25.7202 35.7893 25.5 35.6986C25.4723 34.1452 25.5469 27.9174 28.448 25.905C29.6119 25.0969 31.1452 25.0744 33.008 25.838C33.0194 25.8843 33.0281 25.9313 33.0342 25.9786C33.4861 29.5833 33.6623 32.2795 33.5067 33.1908ZM36.8292 21.4842C35.2777 21.6998 34.1948 23.0273 33.5742 24.0624C33.5053 23.8036 33.4205 23.5172 33.3164 23.2116C33.5296 23.1347 33.7229 23.0112 33.8823 22.8502C34.0418 22.6892 34.1634 22.4947 34.2382 22.2808C34.313 22.067 34.3393 21.8391 34.315 21.6138C34.2907 21.3885 34.2165 21.1715 34.0978 20.9784C34.8787 20.4558 36.4205 19.2113 36.9216 17.2753C36.9882 17.0175 37.0341 16.7548 37.0589 16.4897C39.0042 17.5341 40.2839 19.1977 40.867 21.4434C41.0592 22.196 41.1669 22.9676 41.1881 23.7441C39.7003 22.0477 38.2369 21.2888 36.8292 21.4842ZM41.7305 27.0033C41.627 27.0033 41.5259 26.9726 41.4398 26.9151C41.3538 26.8576 41.2868 26.7759 41.2472 26.6804C41.2076 26.5848 41.1972 26.4796 41.2174 26.3781C41.2376 26.2766 41.2874 26.1834 41.3606 26.1103C41.4337 26.0371 41.5269 25.9873 41.6284 25.9671C41.7299 25.9469 41.8351 25.9573 41.9307 25.9969C42.0262 26.0365 42.1079 26.1035 42.1654 26.1895C42.2229 26.2756 42.2536 26.3767 42.2536 26.4802C42.2533 26.6188 42.1981 26.7517 42.1001 26.8498C42.002 26.9478 41.8691 27.003 41.7305 27.0033Z" fill="#71006B"/>
</svg>
